<?xml version="1.0" standalone="no"?>
<!DOCTYPE svg PUBLIC "-//W3C//DTD SVG 20010904//EN"
 "http://www.w3.org/TR/2001/REC-SVG-20010904/DTD/svg10.dtd">
<svg version="1.0" xmlns="http://www.w3.org/2000/svg"
 width="500.000000pt" height="500.000000pt" viewBox="0 0 500.000000 500.000000"
 preserveAspectRatio="xMidYMid meet">

<g transform="translate(0.000000,500.000000) scale(0.100000,-0.100000)"
fill="#000000" stroke="none">
<path d="M1010 2836 c-113 -62 -206 -120 -208 -128 -2 -10 20 -28 62 -52 37
-20 66 -39 66 -41 0 -2 -29 -21 -66 -41 -42 -24 -64 -42 -62 -52 2 -8 31 -31
66 -50 34 -18 62 -37 62 -40 0 -4 -29 -22 -65 -41 -40 -20 -65 -39 -65 -50 0
-11 69 -53 210 -129 l210 -114 207 114 c114 62 209 120 211 128 1 10 -23 29
-69 54 l-71 38 71 39 c39 22 71 46 71 54 0 7 -31 31 -70 51 l-69 38 29 17 c16
10 47 27 70 39 26 13 40 27 38 37 -2 12 -364 221 -413 238 -5 2 -102 -47 -215
-109z m384 -29 c92 -51 168 -97 168 -102 0 -4 -77 -50 -172 -102 l-171 -94
-180 98 c-167 91 -177 98 -157 110 13 7 91 50 173 97 83 46 155 84 160 85 6 0
86 -41 179 -92z m-299 -277 c62 -33 119 -60 126 -60 8 0 64 28 124 61 l110 60
55 -30 c30 -16 54 -33 54 -37 -2 -11 -337 -195 -349 -192 -6 2 -88 45 -182 97
l-172 95 57 33 c31 18 59 33 61 33 2 0 54 -27 116 -60z m57 -214 l66 -37 119
65 118 64 57 -30 c32 -17 55 -34 53 -38 -7 -11 -333 -190 -347 -190 -15 0
-347 184 -348 192 0 4 26 21 58 37 l57 29 50 -28 c28 -15 80 -44 117 -64z"/>
<path d="M1790 2556 c0 -128 2 -146 20 -169 25 -31 75 -41 126 -25 53 18 63
51 63 211 l1 127 -45 0 -45 0 0 -139 c0 -92 -4 -142 -11 -147 -22 -13 -29 23
-29 154 l0 132 -40 0 -40 0 0 -144z"/>
<path d="M2040 2670 c0 -26 4 -30 28 -30 16 0 31 -3 34 -6 4 -3 -9 -51 -28
-107 -19 -55 -34 -116 -34 -134 l0 -33 80 0 80 0 0 30 c0 28 -3 30 -35 30 -20
0 -35 5 -35 11 0 7 14 54 30 106 17 51 30 109 30 128 l0 35 -75 0 -75 0 0 -30z"/>
<path d="M2240 2530 l0 -170 40 0 40 0 0 170 0 170 -40 0 -40 0 0 -170z"/>
<path d="M2370 2531 l0 -171 35 0 34 0 3 93 3 92 24 -92 25 -93 38 0 38 0 0
170 0 170 -40 0 -40 0 -1 -77 0 -78 -23 75 c-23 74 -23 75 -60 78 l-36 3 0
-170z"/>
<path d="M2610 2665 c0 -31 3 -35 25 -35 l25 0 0 -135 0 -135 40 0 40 0 0 135
0 135 30 0 c28 0 30 3 30 35 l0 35 -95 0 -95 0 0 -35z"/>
<path d="M2840 2530 l0 -170 75 0 75 0 0 35 c0 33 -2 35 -35 35 -33 0 -35 2
-35 35 0 32 2 35 30 35 28 0 30 3 30 35 0 32 -2 35 -30 35 -27 0 -30 3 -30 30
0 27 3 30 30 30 28 0 30 3 30 35 l0 35 -70 0 -70 0 0 -170z"/>
<path d="M3030 2530 l0 -170 40 0 39 0 3 78 c2 60 6 77 18 77 12 0 16 -17 18
-77 l3 -78 39 0 40 0 0 73 c0 61 -3 77 -20 92 -18 16 -18 19 -4 29 8 7 18 30
21 53 5 35 2 45 -20 67 -23 23 -34 26 -102 26 l-75 0 0 -170z m118 76 c-2 -20
-9 -32 -20 -34 -14 -3 -18 4 -18 31 0 39 6 48 27 40 9 -4 13 -16 11 -37z"/>
<path d="M3280 2530 l0 -170 40 0 40 0 0 70 c0 68 1 70 25 70 22 0 25 4 25 35
0 31 -3 35 -25 35 -21 0 -25 5 -25 30 0 27 3 30 30 30 28 0 30 3 30 35 l0 35
-70 0 -70 0 0 -170z"/>
<path d="M3499 2698 c-1 -2 -11 -78 -23 -170 l-22 -168 43 0 c41 0 43 1 43 30
0 23 4 30 20 30 16 0 20 -7 20 -30 0 -29 2 -30 45 -30 42 0 45 2 40 23 -2 12
-11 74 -20 137 -27 201 -17 180 -85 180 -33 0 -61 -1 -61 -2z m71 -159 c5 -53
4 -59 -13 -59 -13 0 -17 5 -13 16 3 9 6 39 6 66 0 68 13 53 20 -23z"/>
<path d="M3716 2638 c8 -35 17 -69 19 -76 3 -7 -4 -53 -15 -102 -11 -50 -20
-92 -20 -95 0 -3 20 -5 44 -5 l44 0 7 68 c8 73 17 66 30 -22 7 -46 8 -46 46
-46 47 0 47 1 18 113 -19 77 -20 84 -5 144 21 83 21 83 -19 83 -29 0 -35 -4
-40 -25 -17 -82 -18 -83 -28 -27 l-10 52 -43 0 -42 0 14 -62z"/>
</g>
</svg>
